<?xml version="1.0" encoding="utf-8"?>
<!-- Generator: Adobe Illustrator 21.0.0, SVG Export Plug-In . SVG Version: 6.00 Build 0)  -->
<svg version="1.1" id="Layer_1" xmlns="http://www.w3.org/2000/svg" xmlns:xlink="http://www.w3.org/1999/xlink" x="0px" y="0px"
	 viewBox="0 0 246 129" style="enable-background:new 0 0 246 129;" xml:space="preserve">
<style type="text/css">
	.st0{font-family:'BerlinSansFB-Reg';}
	.st1{font-size:32.61px;}
</style>
<g>
	<path d="M117.8,65.6c0,4.9,0.1,9.7,0,14.6c-0.2,8.6-4.7,13.5-13.1,13.4c-6.9-0.1-12.6,1.6-18.7,5.1c-13.9,8.1-28.4,7.5-42-1
		c-4.5-2.9-8.8-4.1-14.1-4C18.4,93.9,14.1,89.5,14.1,78c0-9.1-0.1-18.2,0-27.4c0.1-7.8,3.1-11.4,10.5-13.6c1.5-0.5,2.7-1.9,4-2.9
		c1.2-1,2.5-3,3.6-2.9c6.5,0.6,10.8-4,16-6.4c12.4-5.5,24.7-5.2,37,0.6c2.3,1.1,5.2,1.3,7.8,1c5.2-0.6,8.7,1.6,10.7,6.8
		c0.6,1.6,2.4,3.2,4,3.7c6.2,1.9,9.7,5.6,10,12.1C118,54.7,117.8,60.2,117.8,65.6C117.8,65.6,117.8,65.6,117.8,65.6z M104.7,62.9
		c0.4-20.6-16.8-38.4-37.8-39c-21.2-0.6-39.2,16.8-39.6,38.4c-0.4,20.5,17,38.5,37.8,39C86.3,101.8,104.2,84.5,104.7,62.9z"/>
	<path d="M82.6,60.3c-5.7-9.8-10.9-18.8-16.7-28.9c11.3,0.5,19.3,4.8,25.7,13.3C88.7,49.7,85.8,54.7,82.6,60.3z"/>
	<path d="M39,78.3c-4.6-8.6-5.3-16.4-3.1-24.5c0.8-3.1,2.3-4.8,5.9-4.5c4.2,0.3,8.4,0.1,13.9,0.1C50,59.2,44.7,68.3,39,78.3z"/>
	<path d="M49,64.3C55.1,74.8,60.4,84,66.3,94.1c-3-0.4-4.9-0.6-6.7-1c-7.6-1.6-15.6-4.9-17.8-11.9C40.5,77,46,70.7,49,64.3z"/>
	<path d="M76.2,75.8c5.8-10.1,11-19.1,16.6-28.8c4.9,8.9,5.6,17.1,2.6,25.4c-0.5,1.5-3,3.1-4.7,3.3C86.4,76.1,81.9,75.8,76.2,75.8z"
		/>
	<path d="M59.9,78.5c11.2,0,21.5,0,32.8,0C87.4,87,80.4,91.7,71.3,93.2c-1.2,0.2-3.2-0.7-3.8-1.7C64.8,87.5,62.6,83.3,59.9,78.5z"/>
	<path d="M39.1,46.5c1.7-2.2,2.7-3.8,4-5.1c5.2-5.5,11.8-10.7,18.8-9c4.2,1,6.9,8.5,11,14.1C60.9,46.5,50.5,46.5,39.1,46.5z"/>
	<path d="M64.6,27.8c18.9-5.1,42,18.2,36.2,36.4C98.1,42.5,86.3,30.2,64.6,27.8z"/>
	<path d="M67.4,97.4c-22,5-41.6-20.9-36.2-36.4C33.8,82.6,45.6,95,67.4,97.4z"/>
</g>
<text transform="matrix(1 0 0 1 125.4307 60.2344)"><tspan x="0" y="0" class="st0 st1">Mark </tspan><tspan x="0" y="32" class="st0 st1">O’Shea</tspan></text>
</svg>
